{"title":"Romeo.And.Juliet.1968.DVDRip.AC3.XviD-DiSSOLVE","uid":4440523,"size":1468221440,"categoryP":"video","categoryS":"movies","magnet":"?xt=urn:btih:ee83cb6c8ed719b310c038bc76159319ca336950&amp;dn=Romeo.And.Juliet.1968.DVDRip.AC3.XviD-DiSSOLVE&amp;tr=udp%3A%2F%2Ftracker.openbittorrent.com%3A80&amp;tr=udp%3A%2F%2Fopen.demonii.com%3A1337&amp;tr=udp%3A%2F%2Ftracker.coppersurfer.tk%3A6969&amp;tr=udp%3A%2F%2Fexodus.desync.com%3A6969","seeders":12,"leechers":5,"uploader":"DiSSOLVE","files":2,"time":1223794859,"description":"Romeo.And.Juliet.1968.DVDRip.AC3.XviD-DiSSOLVE\n\nVideo:  \n\nDisc 1: \n\nVideo\nFormat                           : MPEG-4 Visual\nFormat profile                   : Streaming Video@L1\nFormat settings, BVOP            : Yes\nFormat settings, QPel            : No\nFormat settings, GMC             : No warppoints\nFormat settings, Matrix          : Custom\nCodec ID                         : XVID\nCodec ID/Hint                    : XviD\nDuration                         : 1h 8mn\nBit rate                         : 1 236 Kbps\nWidth                            : 672 pixels\nHeight                           : 384 pixels\nDisplay aspect ratio             : 16/9\nFrame rate                       : 23.976 fps\nResolution                       : 24 bits\nColorimetry                      : 4:2:0\nScan type                        : Progressive\nBits/(Pixel*Frame)               : 0.200\nStream size                      : 603 MiB (86%)\nWriting library                  : XviD 1.2.0.dev47 (UTC 2006-11-01)\n\nDisc 2:\n\n\nVideo\nFormat                           : MPEG-4 Visual\nFormat profile                   : Streaming Video@L1\nFormat settings, BVOP            : Yes\nFormat settings, QPel            : No\nFormat settings, GMC             : No warppoints\nFormat settings, Matrix          : Custom\nCodec ID                         : XVID\nCodec ID/Hint                    : XviD\nDuration                         : 1h 9mn\nBit rate                         : 1 205 Kbps\nWidth                            : 672 pixels\nHeight                           : 384 pixels\nDisplay aspect ratio             : 16/9\nFrame rate                       : 23.976 fps\nResolution                       : 24 bits\nColorimetry                      : 4:2:0\nScan type                        : Progressive\nBits/(Pixel*Frame)               : 0.195\nStream size                      : 601 MiB (86%)\nWriting library                  : XviD 1.2.0.dev47 (UTC 2006-11-01)\n\nAudio:\n\nAC3 @ 192kbps\n\nNotes:\n\nbeen awhile, so no ascii to bother with. No subs either, Google for them.","torrent":{"xt":"urn:btih:ee83cb6c8ed719b310c038bc76159319ca336950","amp;dn":"Romeo.And.Juliet.1968.DVDRip.AC3.XviD-DiSSOLVE","amp;tr":["udp%3A%2F%2Ftracker.openbittorrent.com%3A80","udp%3A%2F%2Fopen.demonii.com%3A1337","udp%3A%2F%2Ftracker.coppersurfer.tk%3A6969","udp%3A%2F%2Fexodus.desync.com%3A6969"],"infoHash":"ee83cb6c8ed719b310c038bc76159319ca336950","infoHashBuffer":{"type":"Buffer","data":[238,131,203,108,142,215,25,179,16,192,56,188,118,21,147,25,202,51,105,80]},"announce":[],"urlList":[]}}